# xmcd
# 
# Track frame offsets:
#     150
#     5102
#     13695
#     25368
#     34500
#     45359
#     48590
#     64686
#     72399
#     83426
#     90956
#     105681
#     108903
#     126475
#     138231
#     146111
#     164683
#     170782
#     184158
# 
# Disc length: 2697
# 
# Revision: 2
# Processed by: cddbd v1.5.2PL0 Copyright (c) Steve Scherf et al.
# Submitted via: BonkEnc v1.0.6
# 
DISCID=060a8713
DTITLE=Chitãozinho and Xororó - Minha Vida Minha Música
DYEAR=2002
DGENRE=Sertanejo
TTITLE0=Abertura (por Leila Cordeiro)
TTITLE1=Os Caipiras
TTITLE2=Doce Amada
TTITLE3=Nosso Ídolo Raul
TTITLE4=Tente Outra Vez (por Raul Seixas)
TTITLE5=30 anos de carreira
TTITLE6=Medo da Chuva (ao vivo)
TTITLE7=O Nome da Cupla
TTITLE8=Cantando na Lama
TTITLE9=Os Bee Gees
TTITLE10=Palavras (Words) - (com Bee Gees)
TTITLE11=Introdução a Recordações
TTITLE12=Recordações (pom Tonny and Kleber)
TTITLE13=O Pistoleiro de Ave Maria
TTITLE14=Introdução a We're All Alone
TTITLE15=Coração Vazio (We're All Alone)
TTITLE16=Deus
TTITLE17=Encerramento (No Rancho Fundo)
TTITLE18=Eu e o Sabiá
EXTD=http://nalves.spaces.live.com/
EXTT0=
EXTT1=
EXTT2=
EXTT3=
EXTT4=
EXTT5=
EXTT6=
EXTT7=
EXTT8=
EXTT9=
EXTT10=
EXTT11=
EXTT12=
EXTT13=
EXTT14=
EXTT15=
EXTT16=
EXTT17=
EXTT18=
PLAYORDER=
